<svg width="40" height="40" viewBox="0 0 40 40" fill="none" xmlns="http://www.w3.org/2000/svg">
<path d="M39.8798 37.1248L26.8949 24.1399C28.9099 21.5349 29.9999 18.3499 29.9999 14.9999C29.9999 10.99 28.4349 7.22997 25.6049 4.39498C22.7749 1.55999 19.0049 0 14.9999 0C10.995 0 7.22497 1.56499 4.39498 4.39498C1.55999 7.22497 0 10.99 0 14.9999C0 19.0049 1.56499 22.7749 4.39498 25.6049C7.22497 28.4399 10.99 29.9999 14.9999 29.9999C18.3499 29.9999 21.5299 28.9099 24.1349 26.8999L37.1198 39.8798C37.1579 39.9179 37.2031 39.9481 37.2529 39.9688C37.3026 39.9894 37.356 40 37.4098 40C37.4637 40 37.517 39.9894 37.5668 39.9688C37.6166 39.9481 37.6618 39.9179 37.6998 39.8798L39.8798 37.7048C39.9179 37.6668 39.9481 37.6216 39.9688 37.5718C39.9894 37.522 40 37.4687 40 37.4148C40 37.361 39.9894 37.3076 39.9688 37.2579C39.9481 37.2081 39.9179 37.1629 39.8798 37.1248ZM22.9199 22.9199C20.7999 25.0349 17.9899 26.1999 14.9999 26.1999C12.0099 26.1999 9.19996 25.0349 7.07997 22.9199C4.96498 20.7999 3.79998 17.9899 3.79998 14.9999C3.79998 12.0099 4.96498 9.19496 7.07997 7.07997C9.19996 4.96498 12.0099 3.79998 14.9999 3.79998C17.9899 3.79998 20.8049 4.95998 22.9199 7.07997C25.0349 9.19996 26.1999 12.0099 26.1999 14.9999C26.1999 17.9899 25.0349 20.8049 22.9199 22.9199Z" fill="white"/>
</svg>
